<svg xmlns="http://www.w3.org/2000/svg" width="1536" height="1024" viewBox="0 0 1536 1024" version="1.1">
	<path d="M 1193 211.258 C 1190.344 212.058, 1178.209 223.546, 1142.668 258.906 C 1116.911 284.533, 1094.522 307.383, 1092.916 309.683 C 1087.025 318.122, 1086.800 330.275, 1092.395 337.857 C 1093.667 339.582, 1115.924 362.419, 1141.854 388.607 L 1189 436.220 1189 445.610 L 1189 455 1178.250 455.017 C 1160.425 455.046, 1149.081 458.462, 1137.500 467.286 C 1113.961 485.222, 1108.469 517.053, 1124.523 542.500 C 1129.387 550.209, 1140.311 559.816, 1148.460 563.549 C 1157.888 567.869, 1163.926 569, 1177.549 569 L 1189 569 1189 588 L 1189 607 1178.250 607.007 C 1172.338 607.011, 1156.700 607.175, 1143.500 607.370 C 1116.340 607.773, 1112.489 608.594, 1103.163 615.965 C 1092.903 624.076, 1089 633.467, 1089 650.048 L 1089 660.732 1083.250 662.839 C 1071.725 667.062, 1060.253 679.158, 1055.826 691.756 C 1045.929 719.914, 1064.910 750.323, 1094.697 754.029 C 1110.235 755.963, 1123.848 751.035, 1134.973 739.450 C 1145.535 728.451, 1149.795 715.218, 1147.771 699.700 C 1146.644 691.059, 1141.122 679.985, 1134.815 673.718 C 1130.178 669.109, 1120.559 663.301, 1114.631 661.530 C 1112.941 661.025, 1112.801 660.085, 1113.169 651.689 C 1113.504 644.023, 1113.974 641.846, 1115.866 639.188 C 1120.911 632.104, 1115.749 632.500, 1203 632.500 C 1279.704 632.500, 1281.577 632.546, 1284.887 634.500 C 1290.254 637.669, 1292 642.023, 1292 652.234 C 1292 658.580, 1291.655 661, 1290.750 661.001 C 1290.063 661.001, 1286.635 662.357, 1283.134 664.013 C 1274.511 668.093, 1266.284 676.624, 1261.354 686.598 C 1257.822 693.745, 1257.510 695.081, 1257.158 704.612 C 1256.674 717.689, 1258.951 725.997, 1265.434 734.803 C 1279.152 753.437, 1303.740 759.607, 1324.489 749.621 C 1333.114 745.470, 1338.640 740.756, 1343.545 733.366 C 1349.447 724.474, 1351.253 717.430, 1350.751 705.251 C 1350.355 695.649, 1350.066 694.474, 1346.173 686.618 C 1343.064 680.344, 1340.484 676.811, 1335.923 672.590 C 1329.986 667.093, 1321.623 662, 1318.533 662 C 1317.254 662, 1317 660.279, 1317 651.605 C 1317 630.366, 1308.721 617.045, 1291 609.771 C 1285.694 607.594, 1284.265 607.506, 1250.500 607.284 C 1231.250 607.158, 1215.162 607.042, 1214.750 607.027 C 1214.338 607.012, 1214 598.450, 1214 588 L 1214 569 1225.340 569 C 1237.663 569, 1248.382 566.886, 1256.146 562.926 C 1271.076 555.309, 1282.548 541.512, 1286.469 526.458 C 1288.212 519.764, 1288.447 505.675, 1286.925 499 C 1283.587 484.350, 1270.858 468.485, 1256.954 461.642 C 1247.384 456.933, 1238.179 455.039, 1224.750 455.017 L 1214 455 1214 445.283 L 1214 435.567 1262.875 386.533 C 1316.890 332.342, 1315.680 333.839, 1314.810 322.284 C 1314.570 319.103, 1313.571 314.828, 1312.589 312.784 C 1311.528 310.575, 1291.681 289.791, 1263.652 261.538 C 1227.186 224.779, 1215.480 213.558, 1212 212.026 C 1207.050 209.846, 1198.796 209.513, 1193 211.258 M 1157.706 280.794 L 1114 324.509 1157.500 368 L 1201 411.491 1245.004 367.496 L 1289.008 323.500 1261.754 296.450 C 1246.764 281.573, 1227.055 262.128, 1217.956 253.240 L 1201.412 237.080 1157.706 280.794 M 277.500 346.050 C 263.933 347.404, 244.441 350.759, 234.162 353.510 C 210.640 359.804, 195.592 367.511, 183.290 379.564 C 174.363 388.311, 170.763 394.504, 168.970 404.202 C 168.313 407.756, 168.051 446.872, 168.228 515.096 L 168.500 620.500 172.098 628 C 183.883 652.563, 215.379 668.390, 267 675.690 C 276.888 677.088, 286.396 677.461, 312.500 677.473 C 342.258 677.488, 346.923 677.262, 359.988 675.166 C 412.114 666.806, 443.916 649.246, 453.558 623.500 C 455.272 618.925, 455.460 614.483, 455.769 571.250 L 456.108 524 478.741 524 L 501.374 524 498.809 526.750 C 493.734 532.192, 492.761 536.704, 495.517 542.033 C 498.274 547.365, 505.317 549.461, 510.800 546.582 C 512.285 545.801, 519.688 538.903, 527.250 531.251 L 541 517.340 541 512.182 C 541 507.115, 540.864 506.882, 533.250 498.895 C 528.987 494.423, 521.724 487.391, 517.109 483.268 C 508.889 475.926, 508.627 475.782, 504.296 476.270 C 493.980 477.433, 490.556 488.717, 498.079 496.766 L 501.101 500 478.551 500 L 456 500 455.983 455.250 C 455.960 397.989, 455.412 394.953, 442.602 381.210 C 427.224 364.713, 401.706 354.173, 362 347.920 C 350.861 346.165, 343.079 345.737, 317.500 345.473 C 300.450 345.297, 282.450 345.556, 277.500 346.050 M 284.500 372.039 C 239.628 376.602, 203.574 389.320, 196.449 403.099 C 193.740 408.337, 194.543 411.905, 199.498 416.653 C 204.250 421.206, 219.588 429.173, 230.873 432.950 C 270.932 446.356, 326.027 448.547, 372.681 438.589 C 383.344 436.313, 401.482 430.267, 410 426.149 C 419.850 421.387, 428 413.688, 428 409.144 C 428 404.453, 425.835 400.989, 420.339 396.890 C 404.608 385.155, 382.334 377.674, 350.500 373.432 C 337.040 371.639, 296.789 370.789, 284.500 372.039 M 597.691 393.501 C 583.935 397.282, 569.338 409.329, 563.157 422 C 557.113 434.393, 557.036 435.504, 557.017 511.566 C 557.006 556.285, 557.377 582.724, 558.069 586.566 C 558.657 589.830, 560.951 596.278, 563.168 600.896 C 570.175 615.492, 584.835 627.442, 600 630.919 C 606.087 632.315, 928.568 632.398, 936.114 631.006 C 943.531 629.638, 956.730 622.947, 962.827 617.466 C 969.471 611.492, 975.450 602.410, 978.177 594.150 C 980.209 587.994, 980.401 585.141, 980.771 555.750 L 981.169 524 1010.188 524 L 1039.207 524 1036.118 527.518 C 1032.125 532.066, 1031.349 535.385, 1033.095 540.436 C 1034.885 545.615, 1040.155 548.559, 1045.793 547.530 C 1048.867 546.970, 1052.105 544.255, 1064.750 531.641 C 1085.236 511.206, 1085.286 512.600, 1063.277 490.721 C 1052.046 479.557, 1048.750 476.834, 1045.910 476.373 C 1040.797 475.543, 1035.701 478.002, 1033.672 482.278 C 1030.895 488.132, 1031.645 491.713, 1036.809 497.250 L 1039.374 500 1010.272 500 L 981.169 500 980.808 468.250 C 980.454 437.099, 980.399 436.366, 977.875 429.398 C 971.400 411.516, 956.981 398.095, 939.297 393.489 C 934.338 392.198, 911.621 392.012, 768.040 392.089 C 634.111 392.162, 601.582 392.431, 597.691 393.501 M 599.246 420.035 C 592.659 423.326, 588.339 427.573, 584.756 434.278 L 582.500 438.500 582.224 509.644 C 581.955 579.085, 581.998 580.918, 583.982 586.223 C 587.600 595.891, 595.625 603.124, 606 606.066 C 609.536 607.068, 642.086 607.400, 758 607.615 C 839.125 607.765, 911.834 607.534, 919.576 607.101 C 932.387 606.385, 934.125 606.057, 938.924 603.445 C 941.824 601.867, 946.180 598.369, 948.604 595.674 C 956.317 587.095, 956.103 589.634, 955.783 510.382 L 955.500 440.500 952.720 434.839 C 949.667 428.623, 944.415 423.328, 937.795 419.793 L 933.500 417.500 769.433 417.238 L 605.366 416.977 599.246 420.035 M 427.500 445.699 C 420.965 450.731, 397.220 459.664, 380.256 463.473 C 357.359 468.613, 347.851 469.455, 312.500 469.472 C 277.923 469.488, 270.205 468.845, 245.500 463.894 C 232.755 461.340, 210.215 453.881, 200.510 449.005 L 193 445.232 193.010 528.866 L 193.020 612.500 195.441 617.702 C 202.844 633.602, 240.618 647.809, 286.500 651.949 C 300.519 653.214, 334.303 652.463, 348 650.583 C 375.186 646.850, 396.921 640.704, 410.584 632.886 C 420.320 627.316, 424.596 623.670, 427.279 618.653 L 429.500 614.500 429.775 549 C 429.926 512.975, 429.926 474.648, 429.775 463.830 C 429.502 444.332, 429.482 444.173, 427.500 445.699 M 630.073 454.635 C 628.033 457.228, 628 458.143, 628 512.201 C 628 567.075, 628.170 570.078, 631.400 572.235 C 632.005 572.639, 647.237 572.976, 665.250 572.985 C 702.975 573.002, 701.304 573.419, 702.519 563.690 C 703.260 557.763, 702.631 554.488, 700.227 551.750 C 698.852 550.184, 696.400 550, 676.902 550 L 655.114 550 654.807 537.552 L 654.500 525.104 675.340 524.802 C 695.865 524.505, 696.209 524.464, 698.090 522.139 C 699.609 520.262, 700 518.164, 700 511.889 C 700 499.720, 700.576 500, 675.500 500 L 655 500 655 488.500 L 655 477 676.845 477 C 703.417 477, 702.500 477.447, 702.500 464.504 C 702.500 451.120, 705.110 452, 665.418 452 L 632.145 452 630.073 454.635 M 722.455 454.455 C 720.290 456.619, 720 457.785, 720 464.320 C 720 470.303, 720.399 472.238, 722.073 474.365 L 724.145 477 739.073 477 L 754 477 754 522.777 C 754 562.591, 754.203 568.845, 755.557 570.777 C 756.987 572.819, 757.917 573, 767 573 C 776.083 573, 777.013 572.819, 778.443 570.777 C 779.797 568.845, 780 562.591, 780 522.777 L 780 477 794.777 477 C 814.208 477, 814 477.135, 814 464.500 C 814 455.934, 813.806 454.977, 811.777 453.557 C 809.851 452.207, 803.919 452, 767.232 452 L 724.909 452 722.455 454.455 M 835.861 453.911 L 833.500 455.823 833.500 512.305 C 833.500 566.445, 833.579 568.875, 835.405 570.894 C 837.270 572.956, 838.012 573, 871.155 573 C 911.541 573, 909 573.806, 909 561 C 909 548.522, 909.862 548.910, 882.422 549.038 L 859.911 549.143 859.705 501.991 C 859.465 446.873, 860.777 452, 846.920 452 C 839.846 452, 837.781 452.357, 835.861 453.911 M 1162.358 482.091 C 1157.291 483.559, 1149.870 489.250, 1146.337 494.377 C 1136.536 508.598, 1140.407 528.018, 1155 537.838 C 1162.403 542.820, 1165.388 543.155, 1201.888 543.107 C 1240.264 543.056, 1242.632 542.700, 1251.162 535.707 C 1253.984 533.393, 1257.689 529.025, 1259.396 526 C 1262.202 521.028, 1262.498 519.684, 1262.475 512 C 1262.455 505.121, 1262 502.583, 1260.088 498.691 C 1256.700 491.797, 1250.022 485.526, 1243.451 483.068 C 1238.220 481.110, 1235.993 481.005, 1201.712 481.090 C 1181.796 481.140, 1164.086 481.590, 1162.358 482.091 M 263.651 500.060 C 257.781 504.678, 256.361 512.272, 260.280 518.088 C 261.534 519.948, 263.672 522.033, 265.030 522.721 C 266.895 523.664, 278.406 523.973, 312 523.982 C 362.769 523.994, 361.216 524.238, 364.464 515.734 C 366.544 510.288, 365.389 504.654, 361.431 500.935 L 358.840 498.500 312.591 498.222 C 266.797 497.946, 266.316 497.964, 263.651 500.060 M 265.096 546.265 C 256.357 550.756, 255.896 563.917, 264.299 569.040 C 267.346 570.899, 269.626 570.993, 311.800 570.996 C 348.532 570.999, 356.578 570.753, 358.901 569.551 C 367.161 565.280, 367.851 552.495, 360.102 547.285 L 356.704 545 312.102 545.015 C 278.693 545.026, 266.897 545.339, 265.096 546.265 M 263.615 593.088 C 260.269 595.720, 258 600.050, 258 603.802 C 258 607.330, 261.661 613.016, 265.030 614.721 C 266.894 615.664, 278.389 615.974, 311.882 615.985 C 364.340 616.003, 361.603 616.574, 365.346 604.825 C 366.283 601.884, 364.040 596.212, 360.894 593.564 L 357.847 591 312.058 591 C 267.139 591, 266.219 591.040, 263.615 593.088 M 1091.230 687.115 C 1074.094 695.597, 1073.744 719.346, 1090.634 727.609 C 1104.142 734.218, 1119.727 726.517, 1123.069 711.581 C 1124.666 704.446, 1122.990 698.105, 1118.063 692.639 C 1111.224 685.054, 1100.045 682.752, 1091.230 687.115 M 1295.500 686.389 C 1284.737 691.091, 1279.241 702.714, 1282.536 713.809 C 1284.501 720.425, 1288.206 724.721, 1294.459 727.633 C 1312.196 735.892, 1330.947 720.090, 1325.529 701.451 C 1322.608 691.403, 1314.120 684.965, 1303.890 685.039 C 1300.926 685.061, 1297.150 685.668, 1295.500 686.389" stroke="none" fill="#000000" fill-rule="evenodd"/>
</svg>